<svg width="34" height="40" viewBox="0 0 34 40" fill="none" xmlns="http://www.w3.org/2000/svg">
<path fill-rule="evenodd" clip-rule="evenodd" d="M8.41709 31.7009H10.16V37.5123C10.16 38.8381 11.3771 40.0009 12.7714 40.0009C14.1657 40.0009 15.3857 38.8381 15.3857 37.5123V31.7009H18.8714V37.5123C18.8714 38.8381 20.0914 40.0009 21.4857 40.0009C22.8799 40.0009 24.0999 38.8381 24.0999 37.5123V31.7009H25.8428C26.8885 31.7009 27.5857 31.0381 27.5857 30.0438L27.5828 12.9581H6.67424V30.0438C6.67424 31.0381 7.37138 31.7009 8.41709 31.7009ZM2.93995 12.5181C1.74567 12.5181 0.699951 13.7723 0.699951 15.2038V27.7523C0.699951 29.1866 1.74567 30.4409 2.93995 30.4409C4.13424 30.4409 5.17995 29.1866 5.17995 27.7552V15.2038C5.17995 13.7695 4.13424 12.5152 2.93995 12.5152V12.5181ZM29.0771 15.2038V27.7523C29.0771 29.1866 30.1228 30.4409 31.32 30.4409C32.5142 30.4409 33.5599 29.1866 33.5599 27.7552V15.2038C33.5599 13.7695 32.5142 12.5152 31.32 12.5152C30.1228 12.5152 29.0771 13.7695 29.0771 15.2009V15.2038ZM25.4942 1.45806C25.5765 1.38514 25.6423 1.29562 25.6873 1.19539C25.7324 1.09517 25.7557 0.986523 25.7557 0.876629C25.7557 0.766735 25.7324 0.65809 25.6873 0.557866C25.6423 0.457642 25.5765 0.368117 25.4942 0.2952C25.3313 0.135531 25.1123 0.0460961 24.8842 0.0460961C24.6561 0.0460961 24.4371 0.135531 24.2742 0.2952L21.6571 2.78377C20.44 1.95234 18.8714 1.62091 17.1285 1.62091C15.5049 1.59531 13.8965 1.93615 12.4228 2.61806L9.98567 0.126629C9.53577 -0.0396054 9.04128 -0.0396054 8.59138 0.126629C8.4172 0.552359 8.4172 1.02947 8.59138 1.4552L10.8571 3.61234C8.41709 5.44091 6.67424 8.26377 6.67424 11.5209H27.5857C27.5764 9.94393 27.1729 8.3943 26.4119 7.01304C25.6509 5.63179 24.5566 4.46276 23.2285 3.61234L25.4942 1.45806ZM14.3371 8.74377H11.3685V5.76091H14.3371V8.74377ZM20.0085 8.74377V5.76091H22.9742V8.74377H20.0085Z" fill="#727474"/>
</svg>
