<svg width="40" height="40" viewBox="0 0 40 40" fill="none" xmlns="http://www.w3.org/2000/svg">
<g clip-path="url(#clip0_6249_39812)">
<path fill-rule="evenodd" clip-rule="evenodd" d="M37.1915 29.3463C36.2515 31.4291 35.8029 32.3577 34.5915 34.1977C32.9057 36.7691 30.5257 39.9691 27.5772 39.9949C24.9543 40.0177 24.2829 38.2891 20.7286 38.3091C17.1743 38.3291 16.4315 40.0234 13.8143 40.0006C10.8629 39.972 8.6086 37.0863 6.92003 34.5149C2.20003 27.332 1.70574 18.8977 4.61717 14.4177C6.6886 11.232 9.95146 9.372 13.02 9.372C16.1457 9.372 18.1057 11.0834 20.6915 11.0834C23.1972 11.0834 24.7257 9.36914 28.3372 9.36914C31.0686 9.36914 33.9629 10.8549 36.0229 13.4234C29.2686 17.1263 30.3657 26.772 37.1943 29.3491L37.1915 29.3463Z" fill="#727474"/>
<path fill-rule="evenodd" clip-rule="evenodd" d="M25.5973 6.49429C26.9087 4.80857 27.9058 2.42857 27.543 0C25.4001 0.148571 22.8944 1.51429 21.4287 3.28857C20.0973 4.90286 19.0001 7.29714 19.4287 9.62286C21.7716 9.69714 24.1916 8.29714 25.5973 6.49429Z" fill="#727474"/>
</g>
<defs>
<clipPath id="clip0_6249_39812">
<rect width="40" height="40" fill="white"/>
</clipPath>
</defs>
</svg>
