<svg width="25" height="24" viewBox="0 0 25 24" fill="none" xmlns="http://www.w3.org/2000/svg">
<path d="M4.08357 12.083C3.11857 12.088 2.33757 11.268 2.33357 10.248V7.067C2.32457 6.051 3.08857 5.222 4.04957 5.199L11.7186 5C11.7736 5 11.8256 5.01 11.8766 5.027L14.8316 6.21C14.9266 6.25 15.0076 6.323 15.0556 6.418H17.5216C17.5856 6.418 17.6496 6.432 17.7056 6.459L19.5456 7.402C19.6916 7.479 19.7856 7.633 19.7856 7.81V8.277H21.9056C22.1406 8.277 22.3336 8.48 22.3336 8.73C22.3336 8.979 22.1406 9.183 21.9046 9.183H19.7856V9.287C19.7856 9.459 19.6916 9.618 19.5456 9.695L17.8726 10.552L17.7056 10.633C17.6479 10.6595 17.5851 10.6732 17.5216 10.673H15.1156V10.697C15.1156 10.896 14.9856 11.073 14.8056 11.132L11.8516 12.065C11.8105 12.0742 11.7686 12.0789 11.7266 12.079H11.0016V13.117C11.0035 13.3563 10.9108 13.5866 10.7438 13.758C10.5767 13.9293 10.3488 14.0278 10.1096 14.032H9.15758V16.252H9.62458C10.4786 16.252 11.1696 16.982 11.1696 17.884C11.1696 18.786 10.4786 19.516 9.62458 19.516H5.38757C4.53757 19.52 3.84357 18.795 3.83957 17.893C3.83957 17.068 4.44357 16.389 5.17257 16.28V12.083H4.08357ZM18.1136 9.42L18.9276 9.003V8.09L18.1136 7.673V9.418V9.42ZM15.1106 9.773H17.2556V7.325H15.1106V9.772V9.773ZM12.1506 11.033L14.2526 10.363V6.94L12.1516 6.1V11.03L12.1506 11.033ZM10.1006 13.127C10.1136 13.127 10.1356 13.127 10.1356 13.117V12.084H9.14857V13.127H10.1016H10.1006ZM4.69357 17.889C4.69357 18.079 4.76657 18.26 4.89557 18.396C4.95714 18.4628 5.03203 18.5159 5.1154 18.5519C5.19877 18.5879 5.28877 18.606 5.37957 18.605H9.61758C9.99458 18.609 10.2996 18.288 10.3036 17.893V17.889C10.304 17.7002 10.2321 17.5184 10.1026 17.381L10.0976 17.372C10.0366 17.3049 9.9626 17.251 9.88006 17.2135C9.79753 17.176 9.70821 17.1558 9.61758 17.154H8.72358C8.49158 17.164 8.29857 16.969 8.29057 16.724V12.084H6.01757V16.719C6.02257 16.955 5.84657 17.154 5.61857 17.159H5.37857C4.99757 17.164 4.69257 17.489 4.69257 17.889H4.69357ZM11.2936 11.177V5.915L4.06757 6.105C3.57757 6.124 3.18757 6.55 3.18757 7.067V10.23C3.18357 10.746 3.57457 11.168 4.06357 11.177H11.2936Z" fill="#727474"/>
<path d="M4.73144 7.08501C4.96744 7.08501 5.16044 7.28901 5.16044 7.53801V9.75801C5.16044 10.008 4.96744 10.212 4.73044 10.212C4.61364 10.2081 4.50312 10.1582 4.42296 10.0731C4.34279 9.9881 4.29947 9.87484 4.30244 9.75801V7.53801C4.30071 7.48005 4.31045 7.42233 4.3311 7.36816C4.35175 7.31398 4.38291 7.26442 4.42277 7.22232C4.46264 7.18023 4.51043 7.14643 4.5634 7.12286C4.61637 7.09929 4.67348 7.08643 4.73144 7.08501ZM6.10344 7.08501C6.33944 7.08501 6.53344 7.28901 6.53344 7.53801V9.75801C6.53344 10.008 6.33944 10.212 6.10344 10.212C5.98647 10.2083 5.87569 10.1585 5.79531 10.0735C5.71493 9.98842 5.67148 9.875 5.67444 9.75801V7.53801C5.67271 7.47997 5.68249 7.42217 5.7032 7.36793C5.72391 7.31369 5.75515 7.26409 5.79512 7.22198C5.8351 7.17987 5.88301 7.14609 5.93609 7.12258C5.98918 7.09907 6.0464 7.0863 6.10444 7.08501H6.10344ZM7.43344 7.08501C7.66944 7.08501 7.86244 7.28901 7.86244 7.53801V9.75801C7.86244 10.008 7.66944 10.212 7.43244 10.212C7.31564 10.2081 7.20512 10.1582 7.12496 10.0731C7.04479 9.9881 7.00147 9.87484 7.00444 9.75801V7.53801C7.00271 7.48005 7.01245 7.42233 7.0331 7.36816C7.05375 7.31398 7.08491 7.26442 7.12477 7.22232C7.16464 7.18023 7.21243 7.14643 7.2654 7.12286C7.31837 7.09929 7.37548 7.08643 7.43344 7.08501Z" fill="#727474"/>
</svg>
