<svg width="16" height="16" viewBox="0 0 16 16" fill="none" xmlns="http://www.w3.org/2000/svg">
<path fill-rule="evenodd" clip-rule="evenodd" d="M11.0518 13.2135C10.7705 13.2135 10.5418 13.4422 10.5418 13.7235C10.5418 14.0048 10.7705 14.2328 11.0518 14.2328C11.3332 14.2328 11.5612 14.0048 11.5612 13.7235C11.5612 13.4422 11.3332 13.2135 11.0518 13.2135Z" stroke="white" stroke-linecap="round" stroke-linejoin="round"/>
<path fill-rule="evenodd" clip-rule="evenodd" d="M3.55021 13.2135C3.26888 13.2135 3.04021 13.4422 3.04021 13.7235C3.04021 14.0048 3.26888 14.2328 3.55021 14.2328C3.83154 14.2328 4.06021 14.0048 4.06021 13.7235C4.06021 13.4422 3.83154 13.2135 3.55021 13.2135Z" stroke="white" stroke-linecap="round" stroke-linejoin="round"/>
<path d="M14.1667 2.16663L12.7801 2.40663L12.1381 10.0553C12.0861 10.6786 11.5654 11.1573 10.9401 11.1573H3.66541C3.06808 11.1573 2.56141 10.7186 2.47541 10.1266L1.84275 5.75463C1.76475 5.21529 2.18275 4.73263 2.72741 4.73263H12.5574" stroke="white" stroke-linecap="round" stroke-linejoin="round"/>
<path d="M6.58307 7.19661H4.7344" stroke="white" stroke-linecap="round" stroke-linejoin="round"/>
</svg>
