<svg width="13" height="14" viewBox="0 0 13 14" fill="none" xmlns="http://www.w3.org/2000/svg">
<path fill-rule="evenodd" clip-rule="evenodd" d="M12.0208 12.6568C11.6303 13.0473 10.9971 13.0473 10.6066 12.6568L0.707108 2.75731C0.316584 2.36678 0.316584 1.73362 0.707108 1.34309C1.09763 0.952569 1.7308 0.952569 2.12132 1.34309L12.0208 11.2426C12.4113 11.6331 12.4113 12.2663 12.0208 12.6568Z" fill="#FF6418"/>
<path fill-rule="evenodd" clip-rule="evenodd" d="M12.0208 1.34311C12.4113 1.73363 12.4113 2.36679 12.0208 2.75732L2.12132 12.6568C1.7308 13.0473 1.09763 13.0473 0.707107 12.6568C0.316582 12.2663 0.316582 11.6331 0.707107 11.2426L10.6066 1.34311C10.9971 0.952581 11.6303 0.952581 12.0208 1.34311Z" fill="#FF6418"/>
</svg>
