<svg width="16" height="16" viewBox="0 0 16 16" fill="none" xmlns="http://www.w3.org/2000/svg">
<path fill-rule="evenodd" clip-rule="evenodd" d="M5.12963 8.92694C4.69979 8.92694 4.35059 8.57774 4.35059 8.1479C4.35059 7.71932 4.69979 7.37012 5.12963 7.37012C5.55948 7.37012 5.90868 7.71932 5.90868 8.1479C5.90868 8.57774 5.55948 8.92694 5.12963 8.92694ZM8.15821 8.92694C7.72836 8.92694 7.37916 8.57774 7.37916 8.1479C7.37916 7.71932 7.72836 7.37012 8.15821 7.37012C8.58805 7.37012 8.93725 7.71932 8.93725 8.1479C8.93725 8.57774 8.58805 8.92694 8.15821 8.92694ZM10.4078 8.1479C10.4078 8.57774 10.757 8.92694 11.1868 8.92694C11.6167 8.92694 11.9659 8.57774 11.9659 8.1479C11.9659 7.71932 11.6167 7.37012 11.1868 7.37012C10.757 7.37012 10.4078 7.71932 10.4078 8.1479Z" fill="#727474"/>
<path fill-rule="evenodd" clip-rule="evenodd" d="M8.01301 1.33301C4.13967 1.33301 1.33301 4.49709 1.33301 8.00969C1.33301 9.13137 1.65967 10.2858 2.23301 11.3407C2.33967 11.5149 2.35301 11.7346 2.27967 11.9423L1.83301 13.4378C1.73301 13.7984 2.03967 14.0648 2.37967 13.9579L3.72634 13.558C4.09301 13.4378 4.37967 13.5907 4.71967 13.7984C5.69301 14.3719 6.90634 14.6663 7.99967 14.6663C11.3063 14.6663 14.6663 12.1092 14.6663 7.98966C14.6663 4.437 11.7997 1.33301 8.01301 1.33301Z" stroke="#727474" stroke-linecap="round" stroke-linejoin="round"/>
</svg>
