<svg width="25" height="24" viewBox="0 0 25 24" fill="none" xmlns="http://www.w3.org/2000/svg">
<path d="M19.3757 8.74001L16.0736 5.43787L15.8627 5.22699L15.6506 5.43662L13.7364 7.32823L12.036 5.64781L14.6486 3.01214C14.6487 3.01201 14.6488 3.01188 14.6489 3.01176C14.82 2.84084 15.0082 2.71971 15.2147 2.64368C15.4337 2.56369 15.6489 2.52501 15.8614 2.52501C16.0929 2.52501 16.3111 2.56447 16.5181 2.64251C16.7134 2.71706 16.887 2.83548 17.0403 3.00272L17.0401 3.00292L17.0493 3.01214L19.1743 5.13714L19.1742 5.13722L19.1804 5.14311C19.4484 5.39622 19.6434 5.68729 19.7688 6.0182C19.8979 6.36116 19.9614 6.7046 19.9614 7.05001C19.9614 7.39549 19.8979 7.73394 19.7695 8.06705C19.6772 8.3054 19.5466 8.52967 19.3757 8.74001ZM5.82356 11.8621L5.82463 11.8611L8.06251 9.60035L9.76216 11.3L7.49929 13.5629L7.49921 13.5628L7.49332 13.569C7.26603 13.8097 6.99865 13.925 6.67343 13.925C6.34846 13.925 6.0698 13.8091 5.82356 13.5629C5.57742 13.3167 5.46143 13.0378 5.46143 12.712C5.46143 12.387 5.57732 12.1084 5.82356 11.8621ZM13.9486 9.38714L15.1595 8.17616L17.7474 10.8103L17.7474 10.8103L17.7493 10.8121C17.8968 10.9597 17.9614 11.1181 17.9614 11.3C17.9614 11.4819 17.8968 11.6403 17.7493 11.7879C17.6018 11.9354 17.4433 12 17.2614 12C17.0795 12 16.9211 11.9354 16.7736 11.7879L16.5614 11.5757L16.3493 11.7879L7.14929 20.9879C6.97644 21.1607 6.79112 21.2815 6.59324 21.3564L6.59282 21.3566C6.38364 21.4361 6.1737 21.475 5.96143 21.475C5.75245 21.475 5.54016 21.4334 5.32284 21.3465C5.11074 21.2616 4.9198 21.1424 4.74876 20.9876C4.59248 20.8151 4.47308 20.6271 4.38857 20.4232C4.30394 20.2183 4.26143 20.003 4.26143 19.775C4.26143 19.5435 4.30089 19.3253 4.37895 19.1183C4.45449 18.9204 4.57562 18.7351 4.74833 18.5624C4.7484 18.5623 4.74848 18.5622 4.74856 18.5621L11.8232 11.5125L12.0352 11.3012L11.8244 11.0887L8.64939 7.88871L8.6495 7.8886L8.64241 7.8819C8.40176 7.65462 8.28643 7.38723 8.28643 7.06201C8.28643 6.73704 8.40232 6.45838 8.64856 6.21214L8.64864 6.21222L8.65453 6.20599C8.88057 5.96666 9.15139 5.85001 9.48643 5.85001C9.82191 5.85001 10.1044 5.96725 10.3493 6.21214L13.5243 9.38714L13.7364 9.59927L13.9486 9.38714Z" fill="white" stroke="#727474" stroke-width="0.6"/>
</svg>
