<svg width="13.000000" height="12.000000" viewBox="0 0 13 12" fill="none" xmlns="http://www.w3.org/2000/svg" xmlns:xlink="http://www.w3.org/1999/xlink">
	<desc>
			Created with Pixso.
	</desc>
	<defs/>
	<path id="Star" d="M6.47 -0.21L8.02 2.89C8.09 3.05 8.24 3.16 8.42 3.19L11.87 3.69C12.01 3.7 12.14 3.78 12.22 3.89C12.39 4.1 12.36 4.4 12.17 4.58L9.66 7C9.53 7.12 9.48 7.3 9.51 7.47L10.11 10.89C10.15 11.17 9.96 11.43 9.68 11.48C9.56 11.5 9.44 11.48 9.33 11.43L6.25 9.81C6.1 9.73 5.91 9.73 5.76 9.81L2.66 11.44C2.4 11.57 2.08 11.47 1.94 11.22C1.89 11.11 1.87 11 1.89 10.88L2.49 7.46C2.52 7.29 2.46 7.12 2.34 7L-0.18 4.58C-0.39 4.37 -0.39 4.04 -0.19 3.83C-0.18 3.83 -0.18 3.83 -0.18 3.83C-0.1 3.75 0.01 3.7 0.12 3.68L3.58 3.18C3.75 3.16 3.9 3.05 3.98 2.89L5.52 -0.21C5.58 -0.34 5.69 -0.43 5.82 -0.48C5.96 -0.52 6.1 -0.51 6.23 -0.45C6.33 -0.4 6.42 -0.31 6.47 -0.21Z" fill="#F6C65C" fill-opacity="1.000000" fill-rule="evenodd"/>
</svg>
