<svg width="14" height="14" viewBox="0 0 14 14" fill="none" xmlns="http://www.w3.org/2000/svg">
<path d="M9.05977 5.37561L9.06043 5.37571L12.085 5.81263L12.085 5.81265L12.0893 5.81323C12.1061 5.81546 12.1216 5.82409 12.1329 5.83884L12.133 5.83892C12.1486 5.85917 12.1463 5.88741 12.1275 5.90498L12.1275 5.90494L12.1226 5.90969L9.93193 8.02804C9.72337 8.22598 9.62969 8.5157 9.68317 8.79818L10.2063 11.7788C10.2093 11.8091 10.1885 11.8369 10.1587 11.8426C10.1391 11.8452 10.1189 11.8422 10.1002 11.8336L7.41435 10.4256C7.1616 10.2896 6.8586 10.2896 6.60583 10.4255L3.89739 11.8426C3.86502 11.8584 3.82422 11.8476 3.80373 11.8157C3.79888 11.8047 3.7972 11.7927 3.799 11.7803L4.32341 8.79232C4.32342 8.79228 4.32342 8.79225 4.32343 8.79221C4.37254 8.51263 4.27997 8.22599 4.07658 8.02807L4.07487 8.02641L1.87449 5.91048C1.85385 5.88876 1.85315 5.85554 1.87173 5.83316C1.88728 5.82143 1.90473 5.81355 1.92317 5.80964L4.93979 5.37396L4.9398 5.374L4.94516 5.37315C5.22279 5.3292 5.46307 5.155 5.59009 4.90206L5.5908 4.90062L6.94064 2.18521L6.94135 2.18375C6.94885 2.16851 6.96169 2.15805 6.97497 2.15367L6.97611 2.15329C6.99235 2.14788 7.01052 2.14919 7.02581 2.15688L7.02581 2.15688L7.02749 2.15772C7.04101 2.16443 7.05287 2.17561 7.06068 2.18974L8.40893 4.90195C8.40904 4.90216 8.40914 4.90237 8.40924 4.90258C8.53482 5.15647 8.77732 5.33433 9.05977 5.37561Z" stroke="#5D5D5F" stroke-width="0.8" stroke-linecap="round" stroke-linejoin="round"/>
</svg>
