<svg width="25" height="24" viewBox="0 0 25 24" fill="none" xmlns="http://www.w3.org/2000/svg">
<path fill-rule="evenodd" clip-rule="evenodd" d="M15.2967 7.636C15.1884 7.24319 14.9853 6.88294 14.7054 6.58681C14.4255 6.29068 14.0773 6.06771 13.6912 5.93743C13.3051 5.80715 12.8929 5.77354 12.4908 5.83954C12.0887 5.90554 11.7089 6.06914 11.3847 6.316C10.9516 6.64676 10.639 7.11047 10.4947 7.636H15.2957H15.2967ZM10.5637 5.965C10.9832 5.54571 11.508 5.24736 12.0828 5.10141C12.6577 4.95547 13.2613 4.96734 13.8299 5.13576C14.3986 5.30419 14.9113 5.62294 15.3139 6.05841C15.7166 6.49387 15.9943 7.02991 16.1177 7.61L16.1227 7.636H21.7427C21.8792 7.636 22.01 7.69021 22.1065 7.7867C22.203 7.88319 22.2572 8.01405 22.2572 8.1505C22.2572 8.28696 22.203 8.41782 22.1065 8.51431C22.01 8.6108 21.8792 8.665 21.7427 8.665H20.8857V11.825L21.8017 10.909C21.8995 10.8205 22.0276 10.773 22.1594 10.7763C22.2913 10.7796 22.4168 10.8334 22.51 10.9267C22.6033 11.0199 22.6571 11.1455 22.6604 11.2773C22.6637 11.4092 22.6162 11.5372 22.5277 11.635L20.8857 13.278V17.463C20.8857 18.0081 20.6693 18.5309 20.2839 18.9165C19.8985 19.302 19.3758 19.5187 18.8307 19.519H6.49673C5.95162 19.519 5.42882 19.3025 5.04327 18.9172C4.65772 18.5318 4.44099 18.0091 4.44073 17.464V13.267L2.81073 11.637C2.71957 11.5397 2.66981 11.4107 2.67194 11.2774C2.67408 11.1441 2.72795 11.0168 2.82217 10.9224C2.9164 10.8281 3.04361 10.774 3.17694 10.7717C3.31026 10.7694 3.43928 10.819 3.53673 10.91L4.44073 11.813V8.665H3.58373C3.44741 8.665 3.31667 8.61085 3.22027 8.51446C3.12388 8.41806 3.06973 8.28733 3.06973 8.151C3.06973 8.01468 3.12388 7.88395 3.22027 7.78755C3.31667 7.69116 3.44741 7.637 3.58373 7.637H9.66673L9.67173 7.611C9.80428 6.98794 10.1144 6.41659 10.5647 5.966V5.965H10.5637ZM19.9267 8.83H5.40073V12.838C5.44345 12.9535 5.44345 13.0805 5.40073 13.196V17.464C5.40073 17.608 5.42911 17.7506 5.48425 17.8837C5.53939 18.0167 5.62021 18.1376 5.72209 18.2393C5.82397 18.3411 5.94491 18.4218 6.078 18.4769C6.21109 18.5319 6.35371 18.5601 6.49773 18.56H18.8317C19.1224 18.56 19.4012 18.4445 19.6067 18.239C19.8123 18.0335 19.9277 17.7547 19.9277 17.464V13.159C19.9009 13.0659 19.9009 12.9671 19.9277 12.874V8.83H19.9267Z" fill="#727474" stroke="#727474" stroke-width="0.2"/>
</svg>
