<svg width="16" height="14" viewBox="0 0 16 14" fill="#727474" xmlns="http://www.w3.org/2000/svg">
<path d="M15.0125 0.533334C15.4875 0.533334 15.8458 0.950001 15.6541 1.725L13.3291 12.6833C13.1666 13.4625 12.6958 13.65 12.0458 13.2875L6.49996 9.19167C6.47845 9.17624 6.46093 9.15591 6.44884 9.13236C6.43675 9.10881 6.43045 9.08272 6.43045 9.05625C6.43045 9.02978 6.43675 9.00369 6.44884 8.98014C6.46093 8.9566 6.47845 8.93626 6.49996 8.92083L12.9041 3.1375C13.1958 2.87917 12.8416 2.75417 12.4583 2.9875L4.42079 8.05833C4.39641 8.07423 4.36874 8.08437 4.33986 8.08798C4.31098 8.09159 4.28166 8.08858 4.25412 8.07917L0.841622 7C0.0832892 6.77917 0.0832891 6.25833 1.01246 5.8875L14.6666 0.620834C14.7749 0.568884 14.8925 0.539133 15.0125 0.533334V0.533334Z" stroke="#727474" stroke-width="0.6" stroke-linecap="round" stroke-linejoin="round"/>
</svg>
